# xmcd CD Database Entry
#
# Track frame offsets:
# 150
# 15405
# 50325
# 75157
# 87617
# 115062
# 142335
# 159910
# 179572
# 203480
# 227522
#
# Disc length: 3540 seconds
#
# Revision: 1
# Processed by: cddbd v1.4PL0 Copyright (c) Steve Scherf et al.
# Submitted via: tcd 2.0b
#
DISCID=800dd20b
DTITLE=Cecilia - Violet 19
DYEAR=1900
DGENRE=
TTITLE0=When you wish upon a star
TTITLE1=Violet
TTITLE2=Star child
TTITLE3=Lightness of beeing
TTITLE4=The protection song
TTITLE5=Pavane pour une infante defunte
TTITLE6=The tracker's song
TTITLE7=My boy hero
TTITLE8=Eg veit i himmerik ei borg
TTITLE9=The snow leopard's prayer
TTITLE10=The riddle
EXTD=
EXTT0=
EXTT1=
EXTT2=
EXTT3=
EXTT4=
EXTT5=
EXTT6=
EXTT7=
EXTT8=
EXTT9=
EXTT10=
PLAYORDER=
